<svg width="20" height="15" viewBox="0 0 20 15" fill="none" xmlns="http://www.w3.org/2000/svg">
<path d="M7.31866 14.64C7.11469 14.64 6.91072 14.5649 6.7497 14.4038L0.233489 7.88762C-0.0778295 7.5763 -0.0778295 7.06102 0.233489 6.7497L6.7497 0.233489C7.06102 -0.0778295 7.5763 -0.0778295 7.88762 0.233489C8.19894 0.544807 8.19894 1.06009 7.88762 1.37141L1.94037 7.31866L7.88762 13.2659C8.19894 13.5772 8.19894 14.0925 7.88762 14.4038C7.73733 14.5649 7.52262 14.64 7.31866 14.64Z" fill="#171321"/>
<path d="M19.0521 8.1238H0.984925C0.544786 8.1238 0.179792 7.7588 0.179792 7.31866C0.179792 6.87852 0.544786 6.51353 0.984925 6.51353H19.0521C19.4922 6.51353 19.8572 6.87852 19.8572 7.31866C19.8572 7.7588 19.4922 8.1238 19.0521 8.1238Z" fill="#171321"/>
</svg>
