<svg width="12" height="18" viewBox="0 0 12 18" fill="none" xmlns="http://www.w3.org/2000/svg">
<g opacity="0.4">
<path d="M5.9992 0C3.76625 0 1.95091 1.9171 1.95091 4.27523C1.95091 6.58836 3.66397 8.46046 5.89693 8.54147C5.96511 8.53247 6.03329 8.53247 6.08443 8.54147C6.10147 8.54147 6.11 8.54147 6.12704 8.54147C6.13556 8.54147 6.13556 8.54147 6.14409 8.54147C8.3259 8.46046 10.039 6.58836 10.0475 4.27523C10.0475 1.9171 8.23215 0 5.9992 0Z" fill="#171321"/>
<path d="M10.3295 10.9346C7.9517 9.26052 4.07386 9.26052 1.67898 10.9346C0.596591 11.6997 0 12.7347 0 13.8418C0 14.9488 0.596591 15.9749 1.67045 16.7309C2.86364 17.577 4.43182 18 6 18C7.56818 18 9.13636 17.577 10.3295 16.7309C11.4034 15.9659 12 14.9398 12 13.8238C11.9915 12.7167 11.4034 11.6907 10.3295 10.9346Z" fill="#171321"/>
</g>
</svg>
